PathFileType	4	(X/Y/Z)	C:\Users\WrightLab\Desktop\Jo\P4V110.trc
DataRate	CameraRate	NumFrames	NumMarkers	Units	OrigDataRate	OrigDataStartFrame	OrigNumFrames
100.00	100.00	       28	19	mm	100.00	159	       633
Frame#	Time	Headset_Front			Headset_Back			Headset_Left			Headset_Right			Left_Shoulder			Right_Shoulder			Sternum			C7			Left Elbow			Right Elbow			Left Wrist			Right Wrist			Left ASIS			Right ASIS			S2			Left Knee			Right Knee			Left Ankle			Right Ankle			
		X1	Y1	Z1	X2	Y2	Z2	X3	Y3	Z3	X4	Y4	Z4	X5	Y5	Z5	X6	Y6	Z6	X7	Y7	Z7	X8	Y8	Z8	X9	Y9	Z9	X10	Y10	Z10	X11	Y11	Z11	X12	Y12	Z12	X13	Y13	Z13	X14	Y14	Z14	X15	Y15	Z15	X16	Y16	Z16	X17	Y17	Z17	X18	Y18	Z18	X19	Y19	Z19	

159	1.580	-406.16278	1619.75952	-1136.37244																						16.89723	1130.34119	-1114.87244				-83.39602	887.75153	-943.91644	-593.59204	864.52313	-1232.71533	-117.78146	952.23792	-1175.29077	-435.36569	977.15527	-1267.99512				-52.07647	495.34357	-1332.32141	-513.92969	532.38293	-1173.29932							
160	1.590	-413.70761	1620.71606	-1127.67615																						8.47015	1130.59143	-1104.80298				-90.75275	889.29175	-935.87360	-601.22302	864.95062	-1226.38733	-127.86361	952.88025	-1166.36060	-443.28220	978.39966	-1260.95020				-58.20741	495.28912	-1317.53735	-521.64050	533.81830	-1166.75684							
161	1.600	-421.30215	1621.65662	-1119.49280																						0.71763	1132.63586	-1100.30493				-99.70342	891.19385	-928.61316	-606.33734	865.18213	-1220.75098	-137.29750	953.86224	-1155.92126	-451.88965	980.60925	-1253.85620				-63.69206	495.08322	-1304.08667	-529.80658	535.22589	-1160.87366							
162	1.610	-429.02591	1622.06079	-1110.86169																						-7.58705	1134.02295	-1092.86902				-107.06135	892.52814	-919.02942	-613.37793	865.34381	-1213.28003	-148.14249	954.46545	-1145.75293	-462.34003	982.58777	-1247.76331				-73.06072	496.51678	-1283.25525	-538.02777	536.03284	-1155.81580							
163	1.620	-436.57870	1623.25793	-1102.99805																						-16.00220	1135.52710	-1085.68213				-115.07321	894.25671	-912.19659	-619.09088	866.10376	-1206.01392	-156.23152	956.09076	-1135.82666	-471.10172	984.45868	-1240.94568				-80.61686	496.28552	-1266.50610	-546.21808	536.40350	-1151.67615							
164	1.630	-444.06128	1624.77185	-1094.78271													-457.08591	1457.03589	-1293.05798							-23.70749	1137.29968	-1078.28687				-123.19548	895.79449	-906.29987	-625.50714	866.35321	-1200.21545	-166.33487	956.72095	-1125.84485	-479.29163	986.41718	-1234.65381				-89.30549	496.15198	-1247.25903	-553.39532	535.99066	-1149.72192							
165	1.640	-451.37299	1626.62598	-1087.04346													-464.30396	1459.27319	-1286.52515	-330.88412	1735.34216	-1255.47925	-306.29016	1504.95007	-1266.57068	-32.43285	1139.42212	-1072.58569				-131.76752	898.26416	-899.47552	-630.95404	867.43182	-1193.24585	-175.74161	958.14087	-1114.99304	-487.22064	987.76837	-1227.70349				-98.40163	494.27267	-1225.45313	-559.10022	534.71265	-1147.43530							
166	1.650	-458.66068	1628.17236	-1078.98560													-471.58215	1461.43262	-1279.50134	-338.58673	1737.20410	-1247.48303	-313.67529	1506.61658	-1258.82495	-40.71907	1141.22620	-1066.23889				-137.80606	898.93726	-892.28107	-637.93231	869.04456	-1186.81421	-185.46906	960.37292	-1105.99011	-493.88116	988.80414	-1221.99951				-108.04702	493.47110	-1207.35303	-562.85132	532.88971	-1144.96545							
167	1.660	-465.78845	1629.76929	-1071.17688													-478.76932	1463.37329	-1272.13171	-346.18451	1738.94983	-1240.26367	-321.04395	1508.43921	-1251.60425	-48.52987	1143.26929	-1060.10583				-145.50967	900.61890	-886.06055	-642.65735	870.31274	-1178.19104	-194.11554	960.90100	-1096.90466	-503.40363	991.28760	-1215.63770				-118.44492	491.59177	-1185.62720	-566.38354	531.72290	-1142.83081							
168	1.670	-472.76663	1631.52795	-1063.88135													-485.85312	1465.41650	-1265.25867	-353.59851	1740.60803	-1233.25732	-328.24545	1510.40808	-1244.68250	-56.63314	1144.65820	-1053.77759				-153.05984	902.07538	-880.63080	-648.89282	871.33148	-1171.13696	-202.71237	962.33685	-1087.58618	-510.13895	992.12793	-1210.27014				-129.14026	490.94620	-1165.13562	-569.32098	531.32703	-1140.54175							
169	1.680	-479.55957	1633.29529	-1056.07898													-492.92014	1467.27649	-1257.97144	-360.80188	1742.27295	-1226.28870	-335.31686	1512.03552	-1237.73645	-64.53801	1145.98145	-1047.67102	-603.79327	1119.07141	-1341.56299	-159.18880	902.92206	-873.80408	-654.47614	872.38007	-1163.63428	-212.34502	963.59564	-1078.00146	-517.51849	993.84418	-1204.73572				-138.69350	489.62674	-1144.86169	-573.14319	530.74774	-1137.79907							
170	1.690	-486.17276	1635.45239	-1048.75354													-499.79721	1469.12891	-1250.68884	-367.93665	1743.64124	-1219.51807	-342.34091	1513.74500	-1230.83789	-71.27927	1147.19836	-1040.81702	-610.30865	1120.19849	-1333.33972	-167.41393	903.67841	-868.49945	-660.41797	874.17023	-1156.34448	-220.16292	965.45544	-1069.21692	-523.89001	994.78149	-1199.56226				-149.27269	489.17441	-1124.28162	-577.09784	530.48779	-1135.69873							
171	1.700	-492.70566	1637.48950	-1041.30530													-506.59296	1470.93945	-1243.44141	-374.84515	1745.45825	-1212.70837	-349.12640	1515.33179	-1223.20276	-78.55952	1148.63257	-1035.32166	-618.07538	1122.22021	-1326.02783	-173.50029	904.60474	-863.31067	-666.23975	876.12128	-1147.96655	-228.29552	967.02777	-1059.31067	-530.98907	996.71320	-1194.32336				-160.88766	488.85614	-1103.93420	-580.83014	530.54181	-1133.71216							
172	1.710	-499.02451	1639.94092	-1034.03113													-513.10248	1472.68066	-1236.19141	-381.70319	1746.89075	-1205.60583	-355.65622	1517.41724	-1215.68750	-85.22906	1150.35852	-1029.47668	-625.89697	1124.18079	-1318.22302	-180.52112	905.50659	-858.48242	-671.61823	877.46753	-1139.36096	-236.53651	968.03784	-1051.03845	-537.38684	998.43671	-1188.70154				-170.38979	489.71780	-1084.05859	-586.00830	530.46698	-1131.80835							
173	1.720	-505.18539	1642.29077	-1026.72571													-519.54480	1474.38330	-1228.97559	-388.49362	1748.28479	-1199.12610	-362.05667	1519.27100	-1208.36719	-91.79841	1152.07666	-1024.30383	-633.94342	1126.34033	-1310.16577	-186.49625	906.06085	-854.64056	-677.90741	879.12952	-1131.29041	-244.79439	969.49707	-1043.28516	-544.82977	1000.45782	-1183.62781				-183.05482	490.12103	-1064.83777	-589.19397	531.15576	-1132.29968							
174	1.730	-511.34698	1644.19556	-1019.08099													-525.79175	1476.03113	-1221.76904	-395.15244	1749.87732	-1192.96704	-368.31412	1521.40991	-1201.82800	-98.18779	1152.76331	-1016.00677	-641.50867	1128.14429	-1302.06836	-193.37578	905.60925	-849.03992	-682.89252	881.22162	-1123.60681	-252.38980	972.26270	-1034.81665	-550.55914	1001.91913	-1178.46582				-193.31543	492.39099	-1045.94141	-592.22699	530.59747	-1130.39270							
175	1.740	-517.29041	1646.47852	-1011.58844	-425.93143	1414.35571	-1048.21228										-531.76685	1477.89746	-1215.10266	-401.75360	1751.27698	-1186.21594	-374.40704	1523.40393	-1194.95898	-104.03596	1154.62708	-1011.02356	-649.20624	1130.05042	-1293.43713	-199.21706	906.43372	-845.38409	-688.68890	883.52692	-1114.98169	-260.98959	974.09668	-1030.59424	-557.15509	1003.87000	-1173.50085				-206.64627	493.38791	-1026.43372	-594.99493	530.91632	-1130.15869							
176	1.750	-523.19818	1648.71057	-1004.54968	-431.06747	1415.79895	-1041.07446										-537.59741	1479.81628	-1208.25842	-408.04764	1753.36548	-1179.77002	-380.44034	1525.10400	-1187.67566	-109.85258	1156.21021	-1004.66333	-656.81158	1132.50940	-1284.85876	-205.14841	906.82196	-842.35138	-694.29041	884.79395	-1105.44092	-267.54175	978.34497	-1013.36993	-562.92780	1005.04810	-1168.44031				-219.19421	496.66266	-1007.80634	-597.64581	530.26520	-1128.34692							
177	1.760	-528.97931	1650.91089	-997.51563	-438.97818	1418.28821	-1033.78882										-543.29095	1481.68994	-1201.29028	-414.29465	1755.16125	-1172.83105	-386.13251	1527.25598	-1180.41187	-116.11626	1157.89392	-999.05261	-664.09772	1134.01453	-1275.90637	-211.33786	906.95844	-837.77502	-699.40802	887.29578	-1097.30688	-275.90857	978.64191	-1012.97748	-568.59210	1006.75983	-1162.81592				-234.07175	498.86288	-988.80164	-599.18927	530.07263	-1127.10657	-113.60352	228.10535	-1394.05493				
178	1.770	-534.56189	1653.32166	-990.42401	-443.44977	1420.29663	-1026.33704										-548.83154	1483.83569	-1194.77319	-420.46649	1756.59351	-1166.16125	-391.82047	1529.44897	-1173.10645	-121.19577	1159.66589	-992.73724	-671.50684	1136.71863	-1267.96643	-215.33385	907.26996	-833.99780	-704.98010	889.42218	-1088.04834	-281.72266	984.09436	-996.45270	-574.27179	1006.97131	-1156.80225				-247.63722	501.00693	-969.15204	-600.17224	529.85138	-1125.32837	-121.12048	228.23154	-1371.98987				
179	1.780	-540.09546	1655.52881	-983.07745	-449.70920	1423.31140	-1019.88953										-554.22296	1485.93152	-1188.38879	-426.33774	1758.23364	-1159.90967	-397.43497	1531.27832	-1165.56616	-126.81154	1161.85120	-988.70190	-677.91815	1138.42615	-1259.00195	-221.12173	908.01508	-830.88422	-709.93329	891.91656	-1078.42004	-290.15918	986.11444	-992.11365	-579.65997	1008.68823	-1151.32031				-261.50208	504.23932	-950.61969	-601.03741	529.39557	-1123.92578	-131.53618	227.27698	-1351.84375				
180	1.790	-545.68671	1657.44897	-975.96313	-455.42230	1424.11438	-1012.22266										-559.77795	1487.54541	-1181.23218	-432.13016	1759.54395	-1152.86511	-402.95801	1533.18335	-1159.22290	-131.71622	1163.69153	-982.56586	-685.01917	1140.94739	-1250.54285	-224.63179	908.72253	-827.75012	-715.97321	894.65601	-1068.75977	-295.77130	989.31671	-980.23517	-585.17633	1010.30951	-1145.15845				-275.96811	508.20172	-932.95862	-601.40466	529.44708	-1122.25537	-143.69183	224.62456	-1329.75623				
181	1.800	-551.11005	1659.41272	-969.03912	-461.23169	1426.56165	-1005.89911										-565.01208	1489.35168	-1174.31775	-437.68140	1761.08301	-1146.59985	-408.36298	1534.92175	-1152.08350	-136.83937	1165.69763	-977.47083	-690.88379	1142.68774	-1241.92725	-229.06096	908.51404	-824.82709	-720.98669	897.28302	-1058.96582	-303.09323	991.50983	-972.14349	-591.01495	1011.15607	-1138.31702				-290.67679	511.83609	-916.35632	-602.02826	529.09338	-1120.45007	-154.66576	221.54373	-1308.17175				
182	1.810	-556.43951	1661.15735	-961.66077	-466.31042	1427.58606	-998.14722										-570.09656	1491.26843	-1167.55750	-443.10843	1762.30212	-1139.95007	-413.59500	1536.70752	-1144.95459	-141.89633	1167.72266	-972.66492	-697.67395	1144.43152	-1233.21802	-231.92419	908.62360	-821.04492	-725.83459	900.27570	-1049.46985	-309.42792	994.10803	-963.89020	-595.16058	1012.50909	-1131.43384				-304.89209	515.05682	-899.35809	-602.51733	529.25439	-1119.58472	-167.14259	217.33269	-1286.35632				
183	1.820	-561.49756	1663.22583	-954.98773	-602.94122	1013.71326	-1127.19202										-575.19513	1492.70947	-1160.34167	-448.41730	1763.32129	-1133.55884	-418.86630	1537.96106	-1137.73132	-146.02037	1168.54102	-964.62939	-703.29150	1145.85864	-1225.16760	-236.24835	908.39075	-817.92792	-731.67865	903.25421	-1039.28467	-316.13904	995.52661	-957.73932							-318.50800	519.93494	-882.24817	-603.46600	528.99652	-1117.56958	-179.65585	211.16893	-1264.31055				
184	1.830	-566.59125	1664.90283	-947.64941	-477.42117	1431.71045	-984.42572										-580.21460	1494.21423	-1153.30957	-453.60233	1764.38049	-1127.12756	-424.06845	1539.04529	-1130.31140	-150.75523	1170.12048	-959.01123	-709.42725	1147.60010	-1216.72729	-240.00995	907.85266	-815.73895	-736.78625	906.50256	-1027.53296	-322.08011	997.53247	-946.67609	-606.42413	1015.77905	-1116.54443				-333.04269	524.90137	-866.35010	-604.32513	529.04675	-1116.34717	-193.07843	205.87694	-1241.31067				
185	1.840	-571.53241	1666.50024	-940.69623	-482.74933	1433.09277	-977.09985										-585.18518	1495.48376	-1145.86816	-458.68134	1765.03271	-1120.10901	-429.15778	1540.01331	-1122.92065	-155.31744	1171.68762	-955.11407	-714.73022	1148.74060	-1208.39941	-244.42290	907.17218	-812.55792	-741.62006	908.78149	-1018.36560	-329.29117	999.73071	-938.78876	-611.80676	1014.55353	-1112.40198				-346.80151	528.61176	-852.59174	-605.49365	528.61389	-1114.05615	-207.36055	198.44263	-1217.49060				
186	1.850	-576.33899	1667.81946	-933.40497	-615.31165	1014.78314	-1109.75269										-590.14288	1496.56079	-1139.06250	-463.68503	1765.70886	-1113.60950	-434.20663	1540.90808	-1115.56421	-159.29672	1172.82568	-948.83771	-720.41559	1150.10413	-1199.97363	-247.76707	905.93085	-809.24890	-747.49762	912.66467	-1007.22125	-334.94623	1000.99609	-933.74921							-359.99506	532.58954	-838.07971	-606.38483	528.37689	-1111.75305	-221.40523	191.35855	-1194.74573				
